# xmcd
#
# Track frame offsets: 
#        150
#        14720
#        24492
#        40100
#        52011
#        62657
#        77286
#        90857
#        109929
#        126092
#        137510
#        156929
#        170249
#
# Disc length: 2453 seconds
#
# Revision: 0
# Processed by: cddbd v1.5.2PL0 Copyright (c) Steve Scherf et al.
# Submitted via: ExactAudioCopy v1.0b1
#
DISCID=a309930d
DTITLE=Věra Martinová - Foukneme do svící
DYEAR=2011
DGENRE=Country
TTITLE0=Sarafán
TTITLE1=Chtíc, aby spal
TTITLE2=Co je toho příčinou
TTITLE3=Já sním o Vánocích
TTITLE4=Ten klaun ví víc
TTITLE5=Na slámě leží
TTITLE6=Čas spásy
TTITLE7=Krajinou tou bájnou
TTITLE8=Purpura
TTITLE9=Zvonky
TTITLE10=Vánoční ukolébavka
TTITLE11=Srdíčka
TTITLE12=Halleluyah Day
EXTD=
EXTT0=
EXTT1=
EXTT2=
EXTT3=
EXTT4=
EXTT5=
EXTT6=
EXTT7=
EXTT8=
EXTT9=
EXTT10=
EXTT11=
EXTT12=
PLAYORDER=
